<svg
    className="svg_icon"
    xmlns="http://www.w3.org/2000/svg"
    width={18}
    height={20}
    viewBox="0 0 18 20"
    fill="none"
  >
    <g clipPath="url(#clip0_670_864)">
      <path
        d="M17.8235 13.2352C17.8235 13.8823 17.4117 14.7058 16.8235 15.0587L9.9411 19.647C9.41169 19.9999 8.52933 19.9999 7.99992 19.647L1.17639 15.0587C0.588156 14.7058 0.176392 13.8823 0.176392 13.2352V6.76461C0.176392 6.11755 0.588156 5.29402 1.17639 4.94108L8.05874 0.352841C8.58816 -0.000100538 9.47051 -0.000100538 9.99992 0.352841L16.8823 4.94108C17.4117 5.29402 17.8823 6.11755 17.8823 6.76461V13.2352H17.8235Z"
        fill="url(#paint0_linear_670_864)"
      />
      <path
        d="M5.47057 5.88232H12.5294V7.64703H5.47057V5.88232ZM3.70587 8.8235H14.2941V10.5882H3.70587V8.8235ZM1.94116 11.7647H16.0588V13.5294H1.94116V11.7647Z"
        fill="white"
      />
    </g>
    <defs>
      <linearGradient
        id="paint0_linear_670_864"
        x1={3.11757}
        y1={-0.000115235}
        x2={15.7646}
        y2={20.8822}
        gradientUnits="userSpaceOnUse"
      >
        <stop stopColor="#5EC41C" />
        <stop offset={1} stopColor="#77B151" />
      </linearGradient>
      <clipPath id="clip0_670_864">
        <rect
          width={17.6471}
          height={20}
          fill="white"
          transform="translate(0.176392)"
        />
      </clipPath>
    </defs>
  </svg>